<svg width="21" height="22" viewBox="0 0 21 22" fill="none" xmlns="http://www.w3.org/2000/svg">
<path d="M10.5001 0.998047C4.7011 0.998047 0 5.7188 0 11.542C0 16.7647 3.78548 21.09 8.74886 21.9276V13.7418H6.21594V10.796H8.74886V8.62393C8.74886 6.10368 10.2817 4.7303 12.5209 4.7303C13.5934 4.7303 14.515 4.81055 14.7826 4.84589V7.48021L13.2295 7.48097C12.012 7.48097 11.7773 8.06182 11.7773 8.91448V10.7945H14.6824L14.3035 13.7403H11.7773V21.998C16.9724 21.3631 21 16.9276 21 11.539C21 5.7188 16.2989 0.998047 10.5001 0.998047Z" fill="#323A49"/>
</svg>
