<svg width="21" height="22" viewBox="0 0 21 22" fill="none" xmlns="http://www.w3.org/2000/svg">
<path d="M20.9466 7.17212C20.8974 6.05631 20.7169 5.2892 20.4584 4.62448C20.1917 3.91891 19.7814 3.2872 19.2438 2.76207C18.7186 2.22876 18.0826 1.81436 17.3851 1.55187C16.7164 1.29339 15.9531 1.11295 14.8371 1.06375C13.7127 1.01039 13.3558 0.998047 10.5041 0.998047C7.65239 0.998047 7.29545 1.01039 6.17525 1.05958C5.05923 1.10878 4.29197 1.28938 3.62729 1.5477C2.92142 1.81436 2.28959 2.22459 1.76436 2.76207C1.23095 3.2872 0.816625 3.92307 0.553926 4.62048C0.295395 5.2892 0.114921 6.05214 0.0657146 7.16796C0.0123415 8.2921 0 8.64898 0 11.5001C0 14.3513 0.0123415 14.7082 0.0615474 15.8281C0.110753 16.944 0.291388 17.7111 0.549919 18.3758C0.816625 19.0814 1.23095 19.7131 1.76436 20.2382C2.28959 20.7715 2.92558 21.1859 3.62312 21.4484C4.29197 21.7069 5.05506 21.8873 6.17125 21.9365C7.29128 21.9859 7.64838 21.998 10.5001 21.998C13.3518 21.998 13.7087 21.9859 14.8289 21.9365C15.9449 21.8873 16.7122 21.7069 17.3769 21.4484C18.7885 20.9027 19.9045 19.7869 20.4502 18.3758C20.7086 17.7071 20.8892 16.944 20.9385 15.8281C20.9877 14.7082 21 14.3513 21 11.5001C21 8.64898 20.9958 8.2921 20.9466 7.17212ZM19.0552 15.7461C19.01 16.7717 18.8377 17.3255 18.6941 17.6947C18.3411 18.6096 17.6149 19.3357 16.6999 19.6885C16.3306 19.8321 15.7726 20.0044 14.7509 20.0494C13.643 20.0988 13.3107 20.111 10.5083 20.111C7.70576 20.111 7.36934 20.0988 6.26549 20.0494C5.2397 20.0044 4.68578 19.8321 4.31649 19.6885C3.86114 19.5203 3.44665 19.2536 3.11023 18.9049C2.76146 18.5644 2.49475 18.1542 2.32646 17.6989C2.18285 17.3297 2.01055 16.7717 1.96551 15.7503C1.91614 14.6426 1.90396 14.3103 1.90396 11.5083C1.90396 8.70635 1.91614 8.36998 1.96551 7.26651C2.01055 6.24092 2.18285 5.68709 2.32646 5.31788C2.49475 4.86245 2.76146 4.44821 3.11439 4.11169C3.45483 3.76298 3.86514 3.49633 4.32066 3.32823C4.68994 3.18465 5.24804 3.01238 6.26966 2.96719C7.37751 2.91799 7.70993 2.90565 10.5123 2.90565C13.3189 2.90565 13.6512 2.91799 14.755 2.96719C15.7808 3.01238 16.3347 3.18465 16.704 3.32823C17.1594 3.49633 17.5739 3.76298 17.9103 4.11169C18.2591 4.45222 18.5258 4.86245 18.6941 5.31788C18.8377 5.68709 19.01 6.24492 19.0552 7.26651C19.1044 8.37415 19.1167 8.70635 19.1167 11.5083C19.1167 14.3103 19.1044 14.6384 19.0552 15.7461Z" fill="#323A49"/>
<path d="M10.5 6.99805C8.01567 6.99805 6 9.01358 6 11.498C6 13.9825 8.01567 15.998 10.5 15.998C12.9845 15.998 15 13.9825 15 11.498C15 9.01358 12.9845 6.99805 10.5 6.99805ZM10.5 14.4171C8.88829 14.4171 7.58096 13.1099 7.58096 11.498C7.58096 9.88621 8.88829 8.57901 10.5 8.57901C12.1118 8.57901 13.419 9.88621 13.419 11.498C13.419 13.1099 12.1118 14.4171 10.5 14.4171V14.4171Z" fill="#323A49"/>
<path d="M18 16.498C18 17.3264 17.3284 17.998 16.4999 17.998C15.6716 17.998 15 17.3264 15 16.498C15 15.6695 15.6716 14.998 16.4999 14.998C17.3284 14.998 18 15.6695 18 16.498V16.498Z" fill="#323A49"/>
</svg>
