<svg width="21" height="22" viewBox="0 0 21 22" fill="none" xmlns="http://www.w3.org/2000/svg">
<path d="M19.4855 0.998047H1.51453C0.67804 0.998047 0 1.67609 0 2.51258V20.4835C0 21.32 0.67804 21.998 1.51453 21.998H19.4855C20.322 21.998 21 21.32 21 20.4835V2.51258C21 1.67609 20.322 0.998047 19.4855 0.998047V0.998047ZM7.44882 16.8711H4.89159V9.17762H7.44882V16.8711ZM6.17029 8.12708H6.15363C5.2955 8.12708 4.74051 7.53635 4.74051 6.79807C4.74051 6.04313 5.31248 5.46875 6.18727 5.46875C7.06206 5.46875 7.60039 6.04313 7.61705 6.79807C7.61705 7.53635 7.06206 8.12708 6.17029 8.12708ZM16.6696 16.8711H14.1127V12.7553C14.1127 11.7209 13.7425 11.0155 12.8172 11.0155C12.1108 11.0155 11.6901 11.4913 11.5052 11.9507C11.4376 12.115 11.4211 12.3448 11.4211 12.5747V16.8711H8.86402C8.86402 16.8711 8.89751 9.8994 8.86402 9.17762H11.4211V10.2669C11.7609 9.74271 12.3689 8.99706 13.7257 8.99706C15.4081 8.99706 16.6696 10.0966 16.6696 12.4597V16.8711Z" fill="#323A49"/>
</svg>
