<svg width="80" height="32" viewBox="0 0 80 32" fill="none" xmlns="http://www.w3.org/2000/svg">
    <path d="M40.1683 21.002H44.3083V23H37.6483V10.436H40.1683V21.002ZM50.338 23.162C49.378 23.162 48.514 22.952 47.746 22.532C46.978 22.1 46.372 21.494 45.928 20.714C45.496 19.934 45.28 19.034 45.28 18.014C45.28 16.994 45.502 16.094 45.946 15.314C46.402 14.534 47.02 13.934 47.8 13.514C48.58 13.082 49.45 12.866 50.41 12.866C51.37 12.866 52.24 13.082 53.02 13.514C53.8 13.934 54.412 14.534 54.856 15.314C55.312 16.094 55.54 16.994 55.54 18.014C55.54 19.034 55.306 19.934 54.838 20.714C54.382 21.494 53.758 22.1 52.966 22.532C52.186 22.952 51.31 23.162 50.338 23.162ZM50.338 20.966C50.794 20.966 51.22 20.858 51.616 20.642C52.024 20.414 52.348 20.078 52.588 19.634C52.828 19.19 52.948 18.65 52.948 18.014C52.948 17.066 52.696 16.34 52.192 15.836C51.7 15.32 51.094 15.062 50.374 15.062C49.654 15.062 49.048 15.32 48.556 15.836C48.076 16.34 47.836 17.066 47.836 18.014C47.836 18.962 48.07 19.694 48.538 20.21C49.018 20.714 49.618 20.966 50.338 20.966ZM61.2945 12.866C62.0385 12.866 62.6925 13.016 63.2565 13.316C63.8205 13.604 64.2645 13.982 64.5885 14.45V13.028H67.1265V23.072C67.1265 23.996 66.9405 24.818 66.5685 25.538C66.1965 26.27 65.6385 26.846 64.8945 27.266C64.1505 27.698 63.2505 27.914 62.1945 27.914C60.7785 27.914 59.6145 27.584 58.7025 26.924C57.8025 26.264 57.2925 25.364 57.1725 24.224H59.6745C59.8065 24.68 60.0885 25.04 60.5205 25.304C60.9645 25.58 61.4985 25.718 62.1225 25.718C62.8545 25.718 63.4485 25.496 63.9045 25.052C64.3605 24.62 64.5885 23.96 64.5885 23.072V21.524C64.2645 21.992 63.8145 22.382 63.2385 22.694C62.6745 23.006 62.0265 23.162 61.2945 23.162C60.4545 23.162 59.6865 22.946 58.9905 22.514C58.2945 22.082 57.7425 21.476 57.3345 20.696C56.9385 19.904 56.7405 18.998 56.7405 17.978C56.7405 16.97 56.9385 16.076 57.3345 15.296C57.7425 14.516 58.2885 13.916 58.9725 13.496C59.6685 13.076 60.4425 12.866 61.2945 12.866ZM64.5885 18.014C64.5885 17.402 64.4685 16.88 64.2285 16.448C63.9885 16.004 63.6645 15.668 63.2565 15.44C62.8485 15.2 62.4105 15.08 61.9425 15.08C61.4745 15.08 61.0425 15.194 60.6465 15.422C60.2505 15.65 59.9265 15.986 59.6745 16.43C59.4345 16.862 59.3145 17.378 59.3145 17.978C59.3145 18.578 59.4345 19.106 59.6745 19.562C59.9265 20.006 60.2505 20.348 60.6465 20.588C61.0545 20.828 61.4865 20.948 61.9425 20.948C62.4105 20.948 62.8485 20.834 63.2565 20.606C63.6645 20.366 63.9885 20.03 64.2285 19.598C64.4685 19.154 64.5885 18.626 64.5885 18.014ZM74.0157 23.162C73.0557 23.162 72.1917 22.952 71.4237 22.532C70.6557 22.1 70.0497 21.494 69.6057 20.714C69.1737 19.934 68.9577 19.034 68.9577 18.014C68.9577 16.994 69.1797 16.094 69.6237 15.314C70.0797 14.534 70.6977 13.934 71.4777 13.514C72.2577 13.082 73.1277 12.866 74.0877 12.866C75.0477 12.866 75.9177 13.082 76.6977 13.514C77.4777 13.934 78.0897 14.534 78.5337 15.314C78.9897 16.094 79.2177 16.994 79.2177 18.014C79.2177 19.034 78.9837 19.934 78.5157 20.714C78.0597 21.494 77.4357 22.1 76.6437 22.532C75.8637 22.952 74.9877 23.162 74.0157 23.162ZM74.0157 20.966C74.4717 20.966 74.8977 20.858 75.2937 20.642C75.7017 20.414 76.0257 20.078 76.2657 19.634C76.5057 19.19 76.6257 18.65 76.6257 18.014C76.6257 17.066 76.3737 16.34 75.8697 15.836C75.3777 15.32 74.7717 15.062 74.0517 15.062C73.3317 15.062 72.7257 15.32 72.2337 15.836C71.7537 16.34 71.5137 17.066 71.5137 18.014C71.5137 18.962 71.7477 19.694 72.2157 20.21C72.6957 20.714 73.2957 20.966 74.0157 20.966Z" fill="#212427"/>
    <path d="M16.4063 0C13.2417 -3.77363e-08 10.1483 0.938383 7.51713 2.69649C4.88594 4.45459 2.83518 6.95345 1.62418 9.87706C0.413176 12.8007 0.096322 16.0177 0.713685 19.1214C1.33105 22.2251 2.8549 25.0761 5.09254 27.3137C7.33018 29.5513 10.1811 31.0752 13.2848 31.6926C16.3885 32.3099 19.6056 31.9931 22.5292 30.7821C25.4528 29.5711 27.9517 27.5203 29.7098 24.8891C31.4679 22.2579 32.4062 19.1645 32.4062 16L24.4062 16C24.4062 17.5823 23.9371 19.129 23.058 20.4446C22.179 21.7602 20.9295 22.7855 19.4677 23.391C18.0059 23.9965 16.3974 24.155 14.8455 23.8463C13.2937 23.5376 11.8682 22.7757 10.7494 21.6569C9.63057 20.538 8.86865 19.1126 8.55997 17.5607C8.25129 16.0089 8.40971 14.4003 9.01521 12.9385C9.62072 11.4767 10.6461 10.2273 11.9617 9.34824C13.2773 8.46919 14.824 8 16.4063 8L16.4063 0Z" fill="#212427"/>
    <path d="M16.4063 0C14.3051 -2.5056e-08 12.2245 0.413852 10.2833 1.21793C8.34211 2.022 6.57828 3.20055 5.09254 4.68629C3.6068 6.17203 2.42825 7.93586 1.62418 9.87707C0.820102 11.8183 0.40625 13.8989 0.40625 16L8.40625 16C8.40625 14.9494 8.61318 13.9091 9.01521 12.9385C9.41725 11.9679 10.0065 11.086 10.7494 10.3431C11.4923 9.60028 12.3742 9.011 13.3448 8.60896C14.3154 8.20693 15.3557 8 16.4063 8L16.4063 0Z" fill="white"/>
    <circle cx="16.4062" cy="16" r="5" fill="white"/>
    <path d="M21.4062 16C21.4062 15.3434 21.2769 14.6932 21.0256 14.0866C20.7744 13.48 20.4061 12.9288 19.9418 12.4645C19.4775 12.0002 18.9263 11.6319 18.3197 11.3806C17.713 11.1293 17.0629 11 16.4062 11C15.7496 11 15.0995 11.1293 14.4928 11.3806C13.8862 11.6319 13.335 12.0002 12.8707 12.4645C12.4064 12.9288 12.0381 13.48 11.7869 14.0866C11.5356 14.6932 11.4062 15.3434 11.4063 16L16.4062 16H21.4062Z" fill="#212427"/>
</svg>
