<svg width="46" height="46" viewBox="0 0 46 46" fill="none" xmlns="http://www.w3.org/2000/svg">
<path fill-rule="evenodd" clip-rule="evenodd" d="M22.4789 42.0012C22.6911 42.1121 22.9285 42.1685 23.1658 42.1666C23.4031 42.1647 23.6385 42.1064 23.8527 41.9937L30.6912 38.3381C32.6304 37.3043 34.149 36.1484 35.3337 34.8027C37.9097 31.8707 39.3164 28.1287 39.2913 24.2701L39.2103 11.5421C39.2025 10.0761 38.2397 8.768 36.8156 8.29249L24.0939 4.02417C23.3279 3.7648 22.4885 3.77043 21.736 4.03732L9.06248 8.45789C7.64617 8.95219 6.70067 10.2697 6.70839 11.7376L6.78943 24.4561C6.81452 28.3204 8.26942 32.0455 10.8879 34.9475C12.0842 36.2744 13.6163 37.4133 15.5767 38.4302L22.4789 42.0012ZM20.6685 27.0421C20.9541 27.3165 21.3246 27.4518 21.6951 27.4481C22.0656 27.4462 22.4341 27.3071 22.7158 27.029L30.1891 19.6614C30.7506 19.1069 30.7448 18.216 30.1775 17.6691C29.6083 17.1222 28.6917 17.1259 28.1302 17.6804L21.6739 24.0443L19.0303 21.5033C18.4611 20.9563 17.5465 20.962 16.983 21.5164C16.4215 22.0709 16.4273 22.9617 16.9966 23.5087L20.6685 27.0421Z" fill="#17262B"/>
</svg>
