<svg width="56" height="44" viewBox="0 0 56 44" fill="none" xmlns="http://www.w3.org/2000/svg">
<path d="M45.5684 -3.8147e-06C43.6591 2.05455 41.3879 3.63615 38.9014 4.64273C36.2794 5.16297 29.0235 1.37942 25.4482 5.2418C24.8523 5.9118 24.1162 6.58181 23.345 7.25181C21.6625 6.42416 19.0686 5.16297 17.1758 3.9412C15.2829 2.71943 10.5158 -3.8147e-06 10.5158 -3.8147e-06L0 13.7942C0 13.7942 2.59389 17.7354 4.20631 20.3366C5.25789 22.0707 6.55483 24.7113 7.39609 26.4849L6.20431 28.0614C5.9189 28.6988 5.81621 29.4201 5.91037 30.1259C6.00453 30.8317 6.29091 31.4873 6.73009 32.0026C7.23703 32.4299 7.85383 32.6602 8.4874 32.6588C9.12098 32.6574 9.73695 32.4243 10.2424 31.9947C10.055 32.2414 9.91313 32.5276 9.82514 32.8366C9.73716 33.1456 9.70479 33.4712 9.72991 33.7944C9.75503 34.1176 9.83715 34.432 9.97148 34.7191C10.1058 35.0063 10.2896 35.2605 10.5123 35.4669C11.0475 35.8184 11.6565 36.0029 12.2764 36.0016C12.8962 36.0002 13.5045 35.8129 14.0386 35.459C13.6381 36.0203 13.4189 36.7178 13.417 37.4374C13.4151 38.157 13.6305 38.856 14.028 39.4199C14.5448 39.621 15.0958 39.6851 15.6382 39.6072C16.1806 39.5292 16.6996 39.3114 17.1547 38.9706C16.928 39.574 16.8693 40.2405 16.9863 40.8822C17.1033 41.5239 17.3906 42.1106 17.8102 42.565C18.403 42.8611 19.0529 42.9832 19.6991 42.9198C20.3453 42.8564 20.9666 42.6095 21.5048 42.2024L23.3135 40.3619C24.968 42.2142 27.2499 43.3611 29.7702 43.3611L29.984 43.3572C30.8145 43.2775 31.6102 42.9452 32.2857 42.3961C32.9612 41.8469 33.4911 41.1015 33.8187 40.2397C34.3305 40.4604 34.9124 40.6101 35.5293 40.6101C36.3565 40.6101 37.1242 40.3421 37.7727 39.881C39.8232 38.3558 39.3325 37.1734 39.3325 37.1734C40.0617 37.5263 40.8716 37.61 41.6457 37.4124C42.4199 37.2148 43.1183 36.7461 43.6405 36.0738C44.1831 35.4497 44.5252 34.64 44.6128 33.7728C44.7004 32.9056 44.5285 32.0303 44.1242 31.2853C44.1464 31.3001 44.172 31.307 44.1978 31.305C45.6735 31.305 46.9564 30.3906 47.6259 29.0427C47.9554 28.0847 48.0667 27.0493 47.9498 26.0307C47.8329 25.012 47.4914 24.0423 46.9564 23.2097L46.967 23.2294C49.8413 22.5989 49.7361 20.983 51.1382 18.6182C52.4658 16.6885 54.1177 15.0709 56 13.8573L45.5684 -3.8147e-06ZM45.3931 27.8249C43.8508 29.559 42.659 28.8102 40.03 26.5637C37.4011 24.3172 32.1783 20.1001 32.1783 20.1001C32.3921 21.3022 32.8863 22.3466 33.5839 23.1782C34.7021 24.5931 38.032 27.8249 39.6094 29.4802C40.5909 30.5049 43.1147 32.5543 41.6425 34.1308C40.1703 35.7073 39.0135 34.1308 36.5949 31.9237C34.1763 29.7167 28.7782 24.2778 28.7782 24.2778C28.7484 24.7992 28.8174 25.3217 28.9806 25.8108C29.1437 26.3 29.3973 26.7447 29.7246 27.1155C30.3205 27.9037 33.6505 31.5296 35.0526 33.1849C36.4547 34.8402 37.6815 35.8255 36.4897 37.1261C35.2979 38.4267 32.8793 36.3773 31.5473 34.8402C29.4792 32.5937 25.3781 28.4161 25.3781 28.4161L25.3746 28.6249C25.3746 29.7443 25.7181 30.769 26.2964 31.5809C27.306 33.0706 29.2689 35.0018 30.4607 36.4995C31.6525 37.9971 32.3535 39.2583 30.4607 40.4407C28.5678 41.623 25.7636 38.7065 24.5368 37.2877V37.2798C24.5371 36.8906 24.4126 36.5142 24.1863 36.2196C23.767 35.7829 23.2497 35.4831 22.69 35.3526C22.1304 35.222 21.5497 35.2656 21.0105 35.4787C21.2324 35.2554 21.4102 34.9823 21.5326 34.6771C21.655 34.3719 21.7193 34.0413 21.7213 33.7065C21.7232 33.3717 21.6629 33.0401 21.5441 32.7331C21.4253 32.426 21.2507 32.1504 21.0315 31.9237C20.5714 31.5318 20.0098 31.32 19.4326 31.3207C18.8553 31.3214 18.2941 31.5346 17.8348 31.9277C18.067 31.6782 18.2463 31.3731 18.3593 31.0351C18.4724 30.697 18.5162 30.3347 18.4875 29.9749C18.4589 29.6152 18.3586 29.2674 18.194 28.9573C18.0294 28.6471 17.8048 28.3827 17.5368 28.1835C16.9093 27.7402 16.173 27.5319 15.4336 27.5886C14.6942 27.6452 13.9898 27.9639 13.4216 28.4988C13.8014 27.9813 13.9886 27.3188 13.9442 26.6498C13.8998 25.9807 13.6272 25.3568 13.1833 24.9084C12.6316 24.331 11.9286 23.9699 11.1793 23.879C10.4299 23.7881 9.67457 23.9722 9.02604 24.4039L6.69504 19.978C5.08262 17.1009 3.18978 14.1056 3.18978 14.1056L11.1818 3.18843C11.1818 3.18843 14.021 5.15903 16.3696 6.65669C17.5263 7.40552 19.5243 8.39082 21.0315 9.17906C18.648 11.1891 16.65 13.1203 17.2459 14.4603C18.3078 15.3174 19.5769 15.7901 20.8839 15.8155C22.1909 15.8408 23.4738 15.4176 24.5613 14.6022C25.9558 13.5598 27.5944 13.007 29.2689 13.0138C30.4852 13.0138 31.642 13.2976 32.69 13.8139C34.6319 15.2879 38.2073 18.9138 41.4672 21.1997C45.5684 24.5497 46.3746 26.7174 45.3931 27.8209V27.8249Z" fill="#17262B"/>
</svg>
