<svg width="23" height="20" viewBox="0 0 23 20" fill="none" xmlns="http://www.w3.org/2000/svg">
<path d="M23 3.24735C22.1447 3.62882 21.2333 3.88166 20.2831 4.00443C21.2606 3.41105 22.0067 2.47859 22.3574 1.35466C21.4461 1.90712 20.4398 2.29735 19.3674 2.51512C18.5021 1.57828 17.2687 0.998047 15.9232 0.998047C13.3127 0.998047 11.2111 3.15235 11.2111 5.79335C11.2111 6.17335 11.2427 6.53874 11.3203 6.88658C7.40025 6.6922 3.93156 4.78197 1.60137 1.87205C1.19456 2.58966 0.955938 3.41105 0.955938 4.29528C0.955938 5.95559 1.79688 7.42735 3.05037 8.27943C2.29281 8.26482 1.54962 8.0412 0.92 7.68897C0.92 7.70359 0.92 7.72258 0.92 7.74158C0.92 10.0713 2.55444 12.0064 4.69775 12.4521C4.31394 12.5588 3.89562 12.61 3.4615 12.61C3.15962 12.61 2.85487 12.5924 2.56881 12.5281C3.17975 14.4267 4.91338 15.8224 6.97475 15.8677C5.3705 17.1437 3.33356 17.9124 1.12844 17.9124C0.74175 17.9124 0.370875 17.8949 0 17.8467C2.08869 19.2161 4.56406 19.998 7.2335 19.998C15.9102 19.998 20.654 12.6904 20.654 6.35605C20.654 6.14412 20.6468 5.93951 20.6367 5.73635C21.5726 5.06112 22.3589 4.21782 23 3.24735Z" fill="#323A49"/>
</svg>
